<svg width="109" height="122" viewBox="0 0 109 122" fill="none" xmlns="http://www.w3.org/2000/svg">
<path fill-rule="evenodd" clip-rule="evenodd" d="M28.0475 81.0717C28.2365 80.3536 28.1609 79.6732 28.1609 78.3504C28.1231 77.0276 28.1231 75.0622 28.312 73.3614C28.4632 71.6606 28.7656 70.2622 29.2191 68.826C29.6727 67.3898 30.2396 65.9158 31.1467 64.215C32.0538 62.552 33.301 60.6622 34.1703 59.4906C35.0396 58.3189 35.4931 57.8276 36.1357 57.2606C36.816 56.6559 37.6097 55.9756 38.4412 55.3709C39.2349 54.7284 40.0286 54.1992 41.0113 53.6701C41.9939 53.1032 43.2034 52.574 44.8286 52.0449C46.4538 51.5158 48.5325 51.0244 50.3845 50.7221C52.2742 50.4197 53.9372 50.3063 55.7136 50.3441C57.49 50.3819 59.3798 50.5331 60.7404 50.7599C62.101 50.9866 62.8947 51.2512 63.8396 51.5536C64.7467 51.8559 65.7672 52.1961 66.901 52.7252C68.0349 53.2543 69.2821 53.9725 70.605 54.9173C71.89 55.8622 73.2884 57.0339 74.3089 58.0166C75.3672 59.037 76.0475 59.8307 76.5766 60.5866C77.1057 61.3425 77.4837 62.0229 77.9372 62.9677C78.3908 63.8748 78.9199 65.0465 79.3357 66.1047C79.7892 67.163 80.1672 68.1079 80.3939 68.9772C80.6585 69.8465 80.8097 70.678 80.9231 71.6229C81.0364 72.5299 81.112 73.5882 81.112 74.7599C81.112 75.9693 81.112 77.2543 81.0742 78.1992C81.0364 79.1063 81.0364 79.6732 82.0191 81.2606C83.0018 82.848 84.9672 85.4937 86.479 87.5725C87.953 89.6512 88.9357 91.2386 89.5026 92.448C90.0695 93.6953 90.2207 94.6024 90.3341 95.6984C90.4097 96.8323 90.4475 98.1551 90.3719 99.4402C90.2963 100.763 90.1073 102.01 89.7672 103.257C89.4648 104.467 89.0113 105.676 88.4821 106.735C87.9152 107.793 87.2727 108.738 86.5924 109.532C85.912 110.363 85.2317 111.043 84.4758 111.724C83.7199 112.442 82.8884 113.122 81.9057 113.802C80.9609 114.483 79.8648 115.163 78.7309 115.768C77.5971 116.41 76.4254 116.939 75.1026 117.506C73.742 118.035 72.2302 118.602 70.6427 119.056C69.0553 119.509 67.3546 119.887 65.4648 120.228C63.6128 120.568 61.5341 120.87 58.775 121.059C56.016 121.21 52.5766 121.248 50.0065 121.172C47.4365 121.059 45.7357 120.832 43.8837 120.492C42.0317 120.114 40.0664 119.661 38.5168 119.245C37.005 118.829 35.9089 118.413 34.5861 117.884C33.301 117.393 31.827 116.75 30.4286 116.032C29.0302 115.314 27.7451 114.483 26.5735 113.613C25.4396 112.706 24.3813 111.761 23.5876 110.817C22.7561 109.909 22.1514 109.002 21.5467 107.982C20.942 106.924 20.375 105.752 19.9971 104.807C19.5813 103.9 19.3546 103.182 19.2412 102.313C19.09 101.406 19.0144 100.309 19.0144 99.1378C19.0144 97.9662 19.09 96.7945 19.2034 95.774C19.3168 94.7536 19.5057 93.9221 19.8837 93.0906C20.2239 92.2969 20.753 91.4654 21.3577 90.5961C21.9624 89.7646 22.6428 88.8575 23.3231 88.026C24.0034 87.1945 24.6459 86.4386 25.2506 85.6827C25.8553 84.9268 26.4223 84.1709 26.9136 83.415C27.405 82.6213 27.8585 81.8276 28.0475 81.0717Z" fill="url(#paint0_radial_38_389)"/>
<path fill-rule="evenodd" clip-rule="evenodd" d="M10.6995 26.2307C10.7751 26.5331 10.8884 27.0622 11.1152 27.6291C11.342 28.2339 11.6066 28.8386 12.0223 29.6701C12.4381 30.4638 13.005 31.4843 13.7609 32.7693C14.5168 34.0921 15.4995 35.6795 16.8601 37.7583C18.1829 39.7992 19.8837 42.3315 21.3199 44.5614C22.7562 46.7914 23.9656 48.7189 24.9483 50.2685C25.931 51.8559 26.6491 53.0654 27.2916 54.1992C27.9341 55.3709 28.4632 56.4291 28.8412 57.4496C29.257 58.4701 29.5215 59.4528 29.5971 60.3599C29.7105 61.2291 29.6349 62.0606 29.4837 62.9299C29.3703 63.7992 29.1436 64.7819 28.8034 65.7646C28.501 66.7851 28.0853 67.8055 27.5184 68.8638C26.9136 69.9221 26.1577 71.0181 25.2884 72.0386C24.4192 73.0213 23.4743 73.8906 22.3782 74.6465C21.2821 75.4024 20.0349 76.0449 18.7877 76.4984C17.5782 76.9142 16.331 77.141 15.1593 77.1788C13.9877 77.2543 12.8538 77.141 11.6821 76.763C10.5105 76.4228 8.0916 75.289 7.97821 75.1756C7.82703 75.0622 7.52467 74.8354 7.10892 74.4953C6.65538 74.1173 6.05065 73.626 5.44593 72.9079C4.8412 72.1898 4.23648 71.3205 3.70735 70.3378C3.17821 69.3929 2.72467 68.3725 2.30892 67.2386C1.89317 66.1047 1.51522 64.8575 1.32624 64.1016C1.09947 63.3079 1.02388 63.0055 0.910495 62.4386C0.759314 61.8717 0.608132 61.078 0.456951 59.8307C0.30577 58.5835 0.154589 56.9205 0.0789986 55.1441C0.003408 53.3677 -0.0343873 51.5158 0.0412033 49.7394C0.154589 47.9252 0.343565 46.1488 0.759314 44.1835C1.17506 42.1803 1.81758 39.9504 2.38451 38.2118C2.95144 36.4732 3.48057 35.226 4.12309 33.9788C4.76561 32.7315 5.55931 31.4465 6.35301 30.3504C7.18451 29.2166 8.01601 28.2339 8.73412 27.478C9.45223 26.7599 10.0192 26.1929 10.3215 26.004C10.6239 25.7772 10.6239 25.8906 10.6239 25.9284C10.6239 25.9662 10.6239 25.9662 10.6995 26.2307Z" fill="url(#paint1_radial_38_389)"/>
<path fill-rule="evenodd" clip-rule="evenodd" d="M92.2995 25.9662C92.2995 26.2685 92.2617 26.7977 92.1483 27.4402C92.0349 28.0449 91.8837 28.6874 91.6192 29.5945C91.3168 30.4638 90.9766 31.5221 90.4475 32.9583C89.9184 34.3567 89.2003 36.1331 88.2554 38.363C87.3105 40.6308 86.0633 43.4276 85.0428 45.8843C83.9845 48.3032 83.1152 50.4197 82.4349 52.1205C81.7546 53.8213 81.2633 55.1819 80.8475 56.3914C80.394 57.6386 80.0538 58.7725 79.827 59.8685C79.6381 60.9268 79.5625 61.9473 79.6003 62.8544C79.6759 63.7615 79.8648 64.5174 80.1672 65.3867C80.4696 66.2182 80.8475 67.1252 81.3389 68.0701C81.7924 68.9772 82.3971 69.9221 83.153 70.867C83.9089 71.8119 84.8538 72.7945 85.8743 73.5882C86.8948 74.4197 87.9908 75.1 89.2003 75.667C90.4097 76.2339 91.7326 76.6497 93.0554 76.8764C94.3404 77.1032 95.5877 77.1032 96.7593 76.9142C97.931 76.763 99.027 76.4607 100.085 75.9315C101.181 75.3646 103.373 73.8528 103.487 73.7016C103.6 73.5504 103.865 73.2859 104.205 72.8701C104.583 72.4166 105.074 71.8119 105.566 71.0182C106.057 70.2245 106.511 69.2418 106.851 68.1835C107.229 67.163 107.493 66.1048 107.682 64.8953C107.909 63.7237 108.022 62.4008 108.136 61.6071C108.211 60.8134 108.211 60.5111 108.249 59.9441C108.287 59.3394 108.287 58.5079 108.249 57.2607C108.173 56.0134 108.022 54.3504 107.796 52.5741C107.569 50.8355 107.266 49.0213 106.851 47.2449C106.473 45.4685 105.944 43.8056 105.188 41.9158C104.432 39.9882 103.449 37.9095 102.58 36.3221C101.711 34.6969 100.992 33.563 100.161 32.4292C99.2916 31.3331 98.3089 30.1993 97.2885 29.2544C96.3058 28.3095 95.3231 27.478 94.4538 26.8733C93.6223 26.2308 92.9798 25.815 92.6396 25.6638C92.2995 25.5126 92.3373 25.5882 92.3373 25.6638C92.3373 25.7016 92.3373 25.7016 92.2995 25.9662Z" fill="url(#paint2_radial_38_389)"/>
<path fill-rule="evenodd" clip-rule="evenodd" d="M42.1829 0.416562C42.2207 0.681129 42.2207 1.24806 42.2963 1.85278C42.3719 2.45751 42.4853 3.13782 42.712 4.04491C42.9388 4.9142 43.2412 6.01026 43.6947 7.44648C44.186 8.9205 44.753 10.6969 45.6223 13.0024C46.4538 15.3079 47.512 18.1425 48.4191 20.637C49.364 23.1315 50.0821 25.2859 50.6868 27.0244C51.2916 28.763 51.7073 30.1236 52.0853 31.4087C52.4254 32.6559 52.7278 33.7898 52.879 34.8859C53.0301 35.9819 53.0679 37.0024 52.9545 37.9095C52.8412 38.7788 52.6144 39.5347 52.2742 40.3662C51.9341 41.1977 51.5183 42.1047 50.9892 43.0118C50.4601 43.9189 49.8175 44.826 49.0238 45.7331C48.1923 46.6402 47.1719 47.5095 46.1136 48.3032C45.0553 49.0591 43.9593 49.7016 42.712 50.1929C41.4648 50.6843 40.1042 51.0244 38.8191 51.1756C37.4963 51.3268 36.249 51.2512 35.0774 51.0622C33.9435 50.8355 32.8853 50.4575 31.827 49.8528C30.7687 49.2481 28.6522 47.6229 28.5388 47.4717C28.4254 47.3205 28.1986 47.0559 27.8585 46.6024C27.5183 46.1488 27.0648 45.5063 26.6112 44.6748C26.1577 43.8433 25.7797 42.8607 25.4774 41.8024C25.175 40.7441 24.9482 39.6481 24.7971 38.4764C24.6837 37.267 24.6081 35.9819 24.5703 35.1504C24.5325 34.3567 24.4947 34.0544 24.5325 33.4496C24.5325 32.8827 24.5325 32.0512 24.6837 30.804C24.7971 29.5567 25.0616 27.8937 25.364 26.1551C25.6664 24.4166 26.0443 22.6024 26.5357 20.8638C27.0648 19.1252 27.6317 17.4622 28.501 15.6103C29.3325 13.7583 30.4664 11.7551 31.4112 10.1677C32.3561 8.61814 33.112 7.52207 34.0569 6.46381C34.964 5.36774 35.9845 4.30948 37.0427 3.40239C38.101 2.4953 39.1215 1.7394 39.9908 1.17247C40.8601 0.605538 41.5404 0.18979 41.8805 0.0764045C42.2207 -0.0747766 42.2207 0.0386092 42.1829 0.0764045C42.1829 0.1142 42.1829 0.1142 42.1829 0.416562Z" fill="url(#paint3_radial_38_389)"/>
<path fill-rule="evenodd" clip-rule="evenodd" d="M67.5058 0.416562C67.5058 0.681129 67.468 1.24806 67.4302 1.85278C67.3546 2.45751 67.2034 3.13782 66.9767 4.04491C66.7499 4.9142 66.4475 6.01026 65.994 7.44648C65.5404 8.9205 64.9357 10.6969 64.1042 13.0024C63.2349 15.3079 62.1767 18.1425 61.2696 20.637C60.3625 23.1315 59.6066 25.2859 59.0019 27.0244C58.4349 28.763 57.9814 30.1236 57.6034 31.4087C57.2633 32.6559 56.9609 33.7898 56.8097 34.8859C56.6585 35.9819 56.6208 37.0024 56.7341 37.9095C56.8475 38.7788 57.0743 39.5347 57.4145 40.3662C57.7546 41.1977 58.2082 42.1047 58.7373 43.0118C59.2664 43.9189 59.8711 44.826 60.7026 45.7331C61.4963 46.6402 62.5168 47.5095 63.5751 48.3032C64.6334 49.0591 65.7672 49.7016 66.9767 50.1929C68.2239 50.6843 69.5845 51.0244 70.9074 51.1756C72.1924 51.3268 73.4397 51.2512 74.6113 51.0622C75.7452 50.8355 76.8412 50.4575 77.8995 49.8528C78.9578 49.2481 81.0365 47.6229 81.1499 47.4717C81.2633 47.3205 81.49 47.0559 81.8302 46.6024C82.1704 46.1488 82.6617 45.5063 83.0774 44.6748C83.531 43.8433 83.9089 42.8607 84.2491 41.8024C84.5515 40.7441 84.7404 39.6481 84.8916 38.4764C85.0428 37.267 85.1184 35.9819 85.1562 35.1504C85.194 34.3567 85.194 34.0544 85.194 33.4496C85.194 32.8827 85.1562 32.0512 85.0428 30.804C84.8916 29.5567 84.6648 27.8937 84.3247 26.1551C84.0223 24.4166 83.6444 22.6024 83.153 20.8638C82.6617 19.1252 82.057 17.4622 81.1877 15.6103C80.3562 13.7583 79.2601 11.7551 78.3152 10.1677C77.3704 8.61814 76.5767 7.52207 75.6696 6.46381C74.7247 5.36774 73.7042 4.30948 72.646 3.40239C71.6255 2.4953 70.5672 1.7394 69.6979 1.17247C68.8286 0.605538 68.1483 0.18979 67.8082 0.0764045C67.468 -0.0747766 67.5058 0.0386092 67.5058 0.0764045C67.5058 0.1142 67.5058 0.1142 67.5058 0.416562Z" fill="url(#paint4_radial_38_389)"/>
<path fill-rule="evenodd" clip-rule="evenodd" d="M50.5358 108.7V96.7189C50.5358 95.8496 50.309 94.867 52.35 94.0355C53.1059 95.3961 61.5342 105.563 64.0287 108.7H73.4775V102.35C72.1169 100.801 68.5641 96.152 67.4303 94.8292L62.5925 88.8575C62.139 88.3284 61.3075 87.4591 61.1185 86.8166L73.4775 77.0276V70.8292H62.9327L60.2492 73.0969C58.813 74.3063 55.1846 76.9142 53.8618 78.1614C53.4082 78.615 51.0649 80.467 50.6114 80.6559L50.687 70.8292H39.235C39.235 70.867 39.1972 70.9425 39.1972 71.1693L39.1594 108.511C39.1594 108.587 39.1972 108.662 39.1972 108.7H50.5358Z" fill="#EDF2F4"/>
<defs>
<radialGradient id="paint0_radial_38_389" cx="0" cy="0" r="1" gradientUnits="userSpaceOnUse" gradientTransform="translate(54.6837 85.7555) rotate(130.944) scale(61.6695 61.7272)">
<stop stop-color="#EF233C"/>
<stop offset="0.239216" stop-color="#EF233C"/>
<stop offset="0.54902" stop-color="#DE0000"/>
<stop offset="0.760784" stop-color="#D00000"/>
<stop offset="1" stop-color="#D00000"/>
</radialGradient>
<radialGradient id="paint1_radial_38_389" cx="0" cy="0" r="1" gradientUnits="userSpaceOnUse" gradientTransform="translate(14.8134 51.5205) rotate(116.448) scale(37.6838 30.3864)">
<stop stop-color="#EF233C"/>
<stop offset="0.239216" stop-color="#EF233C"/>
<stop offset="0.54902" stop-color="#DE0000"/>
<stop offset="0.760784" stop-color="#D00000"/>
<stop offset="1" stop-color="#D00000"/>
</radialGradient>
<radialGradient id="paint2_radial_38_389" cx="0" cy="0" r="1" gradientUnits="userSpaceOnUse" gradientTransform="translate(93.9221 51.3008) rotate(115.638) scale(37.527 29.6011)">
<stop stop-color="#EF233C"/>
<stop offset="0.239216" stop-color="#EF233C"/>
<stop offset="0.54902" stop-color="#DE0000"/>
<stop offset="0.760784" stop-color="#D00000"/>
<stop offset="1" stop-color="#D00000"/>
</radialGradient>
<radialGradient id="paint3_radial_38_389" cx="0" cy="0" r="1" gradientUnits="userSpaceOnUse" gradientTransform="translate(38.7567 25.6148) rotate(115.591) scale(37.3524 29.424)">
<stop stop-color="#EF233C"/>
<stop offset="0.239216" stop-color="#EF233C"/>
<stop offset="0.54902" stop-color="#DE0000"/>
<stop offset="0.760784" stop-color="#D00000"/>
<stop offset="1" stop-color="#D00000"/>
</radialGradient>
<radialGradient id="paint4_radial_38_389" cx="0" cy="0" r="1" gradientUnits="userSpaceOnUse" gradientTransform="translate(70.9191 25.6148) rotate(115.608) scale(37.3579 29.4426)">
<stop stop-color="#EF233C"/>
<stop offset="0.239216" stop-color="#EF233C"/>
<stop offset="0.54902" stop-color="#DE0000"/>
<stop offset="0.760784" stop-color="#D00000"/>
<stop offset="1" stop-color="#D00000"/>
</radialGradient>
</defs>
</svg>
